<?xml version="1.0" standalone="no"?>
<!DOCTYPE svg PUBLIC "-//W3C//DTD SVG 20010904//EN"
 "http://www.w3.org/TR/2001/REC-SVG-20010904/DTD/svg10.dtd">
<svg version="1.0" xmlns="http://www.w3.org/2000/svg"
 width="32.000000pt" height="32.000000pt" viewBox="0 0 32.000000 32.000000"
 preserveAspectRatio="xMidYMid meet">

<g transform="translate(0.000000,32.000000) scale(0.100000,-0.100000)"
fill="#000000" stroke="none">
<path d="M0 290 c0 -5 11 -10 24 -10 21 0 27 -8 42 -57 9 -32 19 -77 22 -100
3 -28 10 -43 19 -43 9 0 12 -6 8 -19 -7 -22 18 -46 41 -37 11 4 14 13 10 31
-6 22 -3 25 22 25 24 0 28 -4 27 -27 0 -21 5 -28 20 -28 15 0 20 7 20 25 0 14
7 28 15 32 8 4 -24 7 -72 7 -52 1 -88 5 -88 11 0 6 35 10 85 10 l84 0 21 69
c11 37 20 71 20 75 0 3 -56 6 -124 6 -115 0 -124 1 -129 20 -4 15 -14 20 -36
20 -17 0 -31 -4 -31 -10z"/>
</g>
</svg>
